<?xml version="1.0" encoding="UTF-8"?>
<svg id="Capa_1" data-name="Capa 1" xmlns="http://www.w3.org/2000/svg" viewBox="0 0 500 500">
  <defs>
    <style>
      .cls-1 {
        fill: #24292f;
      }

      .cls-1, .cls-2 {
        stroke-width: 0px;
      }

      .cls-2 {
        fill: #fefefe;
      }
    </style>
  </defs>
  <path class="cls-2" d="M249.88,499.86c-80.5,0-161-.05-241.5.1-5.64.01-8.4-.08-8.38-7.48C.29,330.76.28,169.04.02,7.33.01.77,1.79.05,7.61.06,169.3.23,330.99.25,492.68,0c6.55-.01,7.27,1.76,7.27,7.58-.17,161.72-.19,323.43.06,485.15.01,6.55-1.76,7.28-7.58,7.27-80.84-.21-161.69-.14-242.53-.14Z"/>
  <path class="cls-1" d="M294.14,360.1c12-2.64,23.14-4.48,33.93-7.58,42.91-12.32,67.99-43.76,72.36-88.27,3-30.59.18-59.33-20.82-83.7-2.57-2.99-1.41-5.43-.58-8.5,4.52-16.79,3.25-33.42-1.38-50.07-1.84-6.62-5.17-8.75-11.81-7.98-18.74,2.15-34.75,10.81-50.18,20.73-4.37,2.81-8.11,3.73-13.31,2.45-35.14-8.68-70.41-8.69-105.53.02-5.27,1.31-9.08.24-13.32-2.45-13.42-8.53-27.4-15.93-43.07-19.53-14.67-3.38-16.38-2.39-20.11,11.87-3.82,14.62-4.24,29.3-.28,43.98,1.1,4.06,1.15,7.19-1.86,11.22-49.81,66.61-11.8,161.02,70.03,174.5,5.1.84,10.2,1.66,16.28,2.64-6.57,9.11-11.72,18.56-13.39,29.48-.53,3.49-3.77,3.83-6.17,4.77-24.51,9.53-47.66,2.13-62.2-20.09-5.36-8.18-11.26-15.66-19.69-20.89-6.02-3.74-12.53-5.97-19.6-5.49-3.22.22-7.61-.22-8.9,3.74-1.29,3.98,2.26,6.61,5.03,8.19,11.93,6.8,19.32,17.45,25.85,28.96.34.6.74,1.2.92,1.85,9.91,34.96,41.91,40.42,71.97,36.24,9.32-1.3,12.21.03,11.35,9.69-.79,8.89.22,17.93.23,26.91.02,16.65-6.56,21.46-21.88,15.81-37.59-13.86-70.08-35.5-96.75-65.39C-49.05,278.33,18.34,64.11,194.18,22.16c138.98-33.16,275.05,62.77,291.6,205.58,12.55,108.33-51.9,213.03-153.97,250.12-17.58,6.39-23.07,2.71-23.05-15.56.02-17.96-.06-35.93.24-53.89.29-17.64-2.43-34.3-14.85-48.31Z"/>
</svg>